<svg width="92" height="92" viewBox="0 0 92 92" fill="none" xmlns="http://www.w3.org/2000/svg">
<g clip-path="url(#clip0_486_1611)">
<path d="M82.8378 41.6737C82.8378 52.4444 78.1674 62.7987 70.0034 70.13L69.569 77.1536C69.4242 81.5705 65.8219 85.0461 61.3688 85.0461C57.6398 85.0461 54.4538 82.5842 53.4763 79.0543C50.0007 79.9775 46.3984 80.4663 42.7599 80.4663C39.1214 80.4663 35.5372 79.9956 32.0435 79.0543C31.066 82.5661 27.8801 85.0461 24.1511 85.0461C19.7161 85.0461 16.1138 81.5705 15.9509 77.1355L15.5164 70.13C7.37051 62.7987 2.7002 52.4444 2.7002 41.6737C2.7002 35.157 4.40178 28.7308 7.62394 23.0467C6.3206 21.4357 3.31566 16.6024 5.72323 8.22119C5.95856 7.3885 6.48351 6.68252 7.20759 6.21187C9.90479 4.45598 19.0644 -0.59448 25.2915 6.75493C30.7583 4.18445 36.6414 2.8811 42.778 2.8811C48.9146 2.8811 54.7797 4.18445 60.2646 6.75493C66.4735 -0.59448 75.6332 4.45598 78.3485 6.21187C79.0725 6.68252 79.5975 7.3885 79.8328 8.22119C80.9732 12.1674 81.0638 15.7878 80.0863 18.9376C79.4708 20.9469 78.5476 22.3045 77.9502 23.0286C81.1543 28.7308 82.8378 35.157 82.8378 41.6737Z" fill="white"/>
<path d="M61.3684 86.8019C59.1599 86.8019 57.0601 86.0959 55.3223 84.7564C54.0551 83.7789 53.0595 82.548 52.3717 81.136C49.24 81.842 45.9998 82.204 42.7776 82.204C39.5554 82.204 36.3152 81.842 33.1835 81.136C32.5138 82.548 31.5182 83.7789 30.2329 84.7564C28.477 86.0959 26.3953 86.8019 24.1687 86.8019C18.7744 86.8019 14.3937 82.5842 14.1945 77.1898L13.8144 70.9265C5.6142 63.3236 0.925781 52.6978 0.925781 41.6736C0.925781 35.2474 2.51876 28.8755 5.52369 23.1915C4.81771 22.1054 4.05743 20.6029 3.55057 18.6117C2.73598 15.3171 2.8808 11.6605 4.02122 7.75049C4.38326 6.51955 5.17975 5.45154 6.24777 4.74556C7.80454 3.73185 10.9543 1.93975 14.6471 1.34238C18.9735 0.618302 22.793 1.75873 25.7255 4.63695C31.1018 2.28369 36.822 1.10706 42.7776 1.10706C48.7332 1.10706 54.4534 2.28369 59.8297 4.61884C62.7622 1.74063 66.5636 0.6002 70.9081 1.32428C74.5828 1.92165 77.7507 3.71374 79.3074 4.72746C80.3936 5.43343 81.1719 6.50145 81.534 7.73239C82.7649 12.0226 82.8554 15.9688 81.7693 19.4806C81.2806 21.0555 80.6289 22.2864 80.0315 23.1915C83.0365 28.8755 84.6294 35.2474 84.6294 41.6736C84.6294 52.6978 79.941 63.3236 71.7408 70.9446L71.3607 77.226C71.1434 82.6023 66.7627 86.8019 61.3684 86.8019ZM54.7249 76.882L55.1956 78.5836C55.5757 79.9413 56.3541 81.0998 57.4764 81.9506C58.5988 82.8014 59.9564 83.2539 61.3684 83.2539C64.8439 83.2539 67.6679 80.5386 67.7946 77.0812V77.0268L68.2652 69.2792L68.8083 68.7904C76.5921 61.8031 81.0633 51.9194 81.0633 41.6555C81.0633 35.4647 79.4342 29.3281 76.3749 23.9156L75.7775 22.8476L76.5559 21.9063C76.9904 21.3632 77.8231 20.2047 78.3661 18.4126C79.235 15.5887 79.1626 12.3122 78.1127 8.7099C77.986 8.29355 77.7326 7.93151 77.3524 7.69618C76.2844 7.00831 73.4786 5.34292 70.3107 4.81797C66.7084 4.2206 63.8664 5.23431 61.6037 7.89531L60.7167 8.92712L59.4857 8.34786C54.2543 5.88598 48.6245 4.63695 42.7595 4.63695C36.8945 4.63695 31.2647 5.88598 26.0333 8.34786L24.8023 8.92712L23.9153 7.89531C21.6526 5.21621 18.8106 4.2206 15.2083 4.81797C12.0404 5.34292 9.2346 7.00831 8.16658 7.69618C7.80454 7.93151 7.53301 8.29355 7.4063 8.7099C5.23406 16.2041 7.78644 20.44 8.98117 21.9063L9.74146 22.8476L9.14409 23.8975C6.08485 29.31 4.45567 35.4465 4.45567 41.6374C4.45567 51.9013 8.92686 61.785 16.7107 68.7723L17.2538 69.2611L17.7425 77.0268C17.8693 80.5024 20.6751 83.2358 24.1687 83.2358C25.5988 83.2358 26.9384 82.7833 28.0607 81.9325C29.183 81.0817 29.9614 79.9232 30.3415 78.5655L30.8122 76.8639L32.5138 77.3165C35.8445 78.2035 39.2839 78.656 42.7595 78.656C46.2351 78.656 49.6745 78.2035 53.0052 77.3165L54.7249 76.882Z" fill="#00553A"/>
<path d="M30.9747 40.5332C28.911 40.5332 27.2275 38.8497 27.2275 36.7861C27.2275 34.7224 28.911 33.0389 30.9747 33.0389C33.0383 33.0389 34.7218 34.7224 34.7218 36.7861C34.7218 38.8497 33.0383 40.5332 30.9747 40.5332Z" fill="#A8A6A7"/>
<path d="M54.4532 40.5332C52.3895 40.5332 50.7061 38.8497 50.7061 36.7861C50.7061 34.7224 52.3895 33.0389 54.4532 33.0389C56.5168 33.0389 58.2003 34.7224 58.2003 36.7861C58.2003 38.8497 56.5168 40.5332 54.4532 40.5332Z" fill="#A8A6A7"/>
<path d="M42.778 42.1443C48.8421 42.1443 53.7659 46.1267 53.7659 51.0324C53.7659 55.938 48.8421 59.0335 42.778 59.0335C36.7138 59.0335 31.79 55.9199 31.79 51.0143C31.79 46.1086 36.6957 42.1443 42.778 42.1443Z" fill="#A8A6A7"/>
<path d="M39.3199 52.8607C40.4296 52.8607 41.3292 51.9611 41.3292 50.8514C41.3292 49.7416 40.4296 48.842 39.3199 48.842C38.2102 48.842 37.3105 49.7416 37.3105 50.8514C37.3105 51.9611 38.2102 52.8607 39.3199 52.8607Z" fill="white"/>
<path d="M46.2164 52.8607C47.3261 52.8607 48.2257 51.9611 48.2257 50.8514C48.2257 49.7416 47.3261 48.842 46.2164 48.842C45.1066 48.842 44.207 49.7416 44.207 50.8514C44.207 51.9611 45.1066 52.8607 46.2164 52.8607Z" fill="white"/>
<path d="M76.6826 58.418C74.6733 62.2194 71.9761 65.695 68.6815 68.6456L68.0842 69.1887L67.5954 77.0087V77.063C67.4868 80.43 64.7353 83.0548 61.3683 83.0548C58.5806 83.0548 56.1187 81.1903 55.3766 78.5112L54.8516 76.6286L52.969 77.1355C49.6563 78.0225 46.2169 78.475 42.7776 78.475C39.3382 78.475 35.8988 78.0225 32.568 77.1355L30.6854 76.6286L30.1605 78.5112C29.4002 81.2265 26.9926 83.0548 24.1687 83.0548C20.7836 83.0548 18.0502 80.4119 17.9416 77.0268L17.4529 69.1706L16.8555 68.6275C9.10784 61.6763 4.67285 51.847 4.67285 41.6374C4.67285 41.3659 4.67285 41.1125 4.69095 40.8409C14.2307 55.7027 30.9208 65.5683 49.8917 65.5683C59.6486 65.5864 68.8082 62.9797 76.6826 58.418Z" fill="#F4F4F4"/>
<path d="M12.6019 19.0642C11.914 18.2134 11.5339 17.2359 11.371 16.1679C11.1537 14.7559 11.3529 13.3802 11.733 12.0225C11.7873 11.8053 11.9321 11.6243 12.1132 11.5157C13.2717 10.7735 14.4845 10.2123 15.8422 9.99512C17.236 9.75979 18.5394 9.97701 19.6617 10.8821C19.9875 11.1355 20.2591 11.4433 20.5306 11.751C20.5125 11.8053 20.4582 11.8053 20.422 11.8415C18.5213 12.8371 16.7835 14.1405 15.2629 15.7153C14.3035 16.6929 13.4527 17.779 12.7105 18.9375C12.6743 18.9737 12.6562 19.028 12.6019 19.0642Z" fill="#E1E1E1"/>
<path d="M72.3027 18.2496C72.9906 17.3988 73.3707 16.4213 73.5336 15.3533C73.7509 13.9414 73.5517 12.5656 73.1716 11.208C73.1173 10.9907 72.9725 10.8097 72.7915 10.7011C71.6329 9.95893 70.4201 9.39776 69.0624 9.18054C67.6686 8.94521 66.3652 9.16244 65.2429 10.0675C64.9171 10.321 64.6456 10.6287 64.374 10.9364C64.3921 10.9907 64.4464 10.9907 64.4826 11.0269C66.4196 12.0588 68.1573 13.3621 69.6779 14.9189C70.6373 15.8964 71.4881 16.9825 72.2303 18.141C72.2303 18.141 72.2484 18.2134 72.3027 18.2496Z" fill="#E1E1E1"/>
<path d="M70.528 89.1008C80.8654 89.1008 89.2455 80.7207 89.2455 70.3834C89.2455 60.046 80.8654 51.6659 70.528 51.6659C60.1906 51.6659 51.8105 60.046 51.8105 70.3834C51.8105 80.7207 60.1906 89.1008 70.528 89.1008Z" fill="#00BD6E"/>
<path d="M70.5281 90.8748C65.0613 90.8748 59.9022 88.7388 56.0284 84.865C52.1546 80.9912 50.0186 75.8502 50.0186 70.3653C50.0186 64.8804 52.1546 59.7394 56.0284 55.8656C59.9022 51.9918 65.0432 49.8557 70.5281 49.8557C76.013 49.8557 81.154 51.9918 85.0278 55.8656C88.9016 59.7394 91.0377 64.8804 91.0377 70.3653C91.0377 75.8502 88.9016 80.9912 85.0278 84.865C81.154 88.7388 76.013 90.8748 70.5281 90.8748ZM70.5281 53.4399C61.1875 53.4399 53.5846 61.0428 53.5846 70.3834C53.5846 79.724 61.1875 87.3269 70.5281 87.3269C79.8688 87.3269 87.4716 79.724 87.4716 70.3834C87.4716 61.0428 79.8688 53.4399 70.5281 53.4399Z" fill="#00553A"/>
<path d="M67.8305 79.6697C67.3599 79.6697 66.9073 79.4887 66.5815 79.1448L60.5354 73.0987C59.8476 72.4108 59.8476 71.2885 60.5354 70.5825C61.2233 69.8946 62.3456 69.8946 63.0516 70.5825L67.6857 75.2166L78.2392 61.7668C78.8366 60.9884 79.9589 60.8617 80.7373 61.4591C81.5157 62.0565 81.6424 63.1788 81.045 63.9572L69.2606 78.9818C68.9529 79.3801 68.4822 79.6335 67.9754 79.6516C67.903 79.6697 67.8668 79.6697 67.8305 79.6697Z" fill="white"/>
</g>
<defs>
<clipPath id="clip0_486_1611">
<rect width="90.51" height="90.51" fill="white" transform="translate(0.745117 0.744995)"/>
</clipPath>
</defs>
</svg>
