<svg width="92" height="92" viewBox="0 0 92 92" fill="none" xmlns="http://www.w3.org/2000/svg">
<g clip-path="url(#clip0_486_1617)">
<path d="M77.606 22.8113H11.9863C9.81403 22.8113 8.04004 24.6939 8.04004 27.029V81.7333H81.5523V27.029C81.5523 24.6939 79.7783 22.8113 77.606 22.8113Z" fill="white"/>
<path d="M83.4352 83.616H6.13965V27.0291C6.13965 23.6621 8.76444 20.9106 11.9685 20.9106H77.5883C80.8104 20.9106 83.4171 23.644 83.4171 27.0291V83.616H83.4352ZM9.94107 79.8327H79.67V27.0291C79.67 25.7439 78.7468 24.694 77.6245 24.694H11.9866C10.8462 24.694 9.94107 25.7439 9.94107 27.0291V79.8327Z" fill="#00583C"/>
<path d="M81.2083 89.2637H8.80033C5.36095 89.2637 2.57324 84.6658 2.57324 81.2265V78.3663H87.4173V81.2265C87.4173 84.6658 84.6296 89.2637 81.2083 89.2637Z" fill="white"/>
<path d="M81.2085 91.0921H8.80051C6.61017 91.0921 4.51033 89.8431 2.91736 87.5984C1.55971 85.6977 0.745117 83.3263 0.745117 81.2265V76.5381H89.2458V81.2265C89.2458 83.3082 88.4312 85.6977 87.0917 87.5984C85.4806 89.8612 83.3988 91.0921 81.2085 91.0921ZM4.40172 80.1947V81.2265C4.40172 83.8151 6.61017 87.4355 8.80051 87.4355H81.2085C83.3808 87.4355 85.6073 83.8151 85.6073 81.2265V80.1947H4.40172Z" fill="#00583C"/>
<path d="M79.6518 62.7987V76.5381L65.5322 76.5019C71.2887 73.1893 76.2848 68.5008 79.6518 62.7987Z" fill="#F2F2F2"/>
<path d="M27.4279 76.5381H9.94141V54.8157C12.8558 64.0477 19.1734 71.7772 27.4279 76.5381Z" fill="#F2F2F2"/>
<path d="M85.6432 80.1584V81.2446C85.6432 83.6883 83.652 87.3993 81.2082 87.3993H8.80022C6.35645 87.3993 4.36523 83.6883 4.36523 81.2446V80.1584H35.6274C39.103 81.1903 42.7777 81.7333 46.5791 81.7333C50.3805 81.7333 54.0552 81.1903 57.5308 80.1584H85.6432Z" fill="#F2F2F2"/>
<path d="M74.9454 30.2151H15.0459V72.8815H74.9454V30.2151Z" fill="#E0E0E0"/>
<path d="M51.2501 83.815H38.7236C36.8228 83.815 35.2842 82.2764 35.2842 80.3757V80.1584H54.6895V80.3757C54.6895 82.2764 53.1509 83.815 51.2501 83.815Z" fill="#00583C"/>
<path d="M89.8611 62.0745C89.8611 64.2649 88.0871 66.0389 85.8967 66.0389H56.9516C54.7613 66.0389 52.9873 64.2649 52.9873 62.0745V6.10313C52.9873 3.91279 54.7613 2.13879 56.9516 2.13879H85.8967C88.0871 2.13879 89.8611 3.91279 89.8611 6.10313V62.0745Z" fill="white"/>
<path d="M87.5981 56.119V62.0746C87.5981 63.5227 86.4577 64.6994 85.082 64.6994H57.3135C55.9378 64.6994 54.8154 63.5228 54.8154 62.0927V43.8821C60.3184 51.9737 69.3513 57.2595 79.5609 57.2595C82.3486 57.2595 85.0458 56.8612 87.5981 56.119Z" fill="#F2F2F2"/>
<path d="M86.0775 67.8672H56.3178C53.4577 67.8672 51.1406 65.5502 51.1406 62.69V5.92217C51.1587 3.06205 53.4758 0.744995 56.3178 0.744995H86.0775C88.9376 0.744995 91.2547 3.06205 91.2547 5.92217V62.7081C91.2547 65.5502 88.9376 67.8672 86.0775 67.8672ZM56.3178 4.4016C55.4851 4.4016 54.7972 5.08948 54.7972 5.92217V62.7081C54.7972 63.5408 55.4851 64.2287 56.3178 64.2287H86.0775C86.9102 64.2287 87.598 63.5408 87.598 62.7081V5.92217C87.598 5.08948 86.9102 4.4016 86.0775 4.4016H56.3178Z" fill="#00583C"/>
<path d="M75.9232 62.6176H66.9265C66.1843 62.6176 65.5869 62.0202 65.5869 61.278C65.5869 60.5358 66.1843 59.9385 66.9265 59.9385H75.9232C76.6653 59.9385 77.2627 60.5358 77.2627 61.278C77.2627 62.0202 76.6653 62.6176 75.9232 62.6176Z" fill="#A7A5A6"/>
<path d="M81.371 56.3544H61.2416C59.7572 56.3544 58.5625 55.1596 58.5625 53.6753V14.3396C58.5625 12.8553 59.7572 11.6605 61.2416 11.6605H81.371C82.8554 11.6605 84.0501 12.8553 84.0501 14.3396V53.6934C84.0501 55.1596 82.8554 56.3544 81.371 56.3544Z" fill="#33BA75"/>
<path d="M81.8239 57.8025H60.8075C58.7801 57.8025 57.1328 56.1552 57.1328 54.1278V13.9052C57.1328 11.8778 58.7801 10.2305 60.8075 10.2305H81.8239C83.8514 10.2305 85.4987 11.8778 85.4987 13.9052V54.1459C85.4987 56.1552 83.8514 57.8025 81.8239 57.8025ZM60.8075 13.0906C60.3731 13.0906 60.011 13.4526 60.011 13.8871V54.1278C60.011 54.5623 60.3731 54.9243 60.8075 54.9243H81.8239C82.2584 54.9243 82.6204 54.5623 82.6204 54.1278V13.9052C82.6204 13.4707 82.2584 13.1087 81.8239 13.1087H60.8075V13.0906Z" fill="#00583C"/>
<path fill-rule="evenodd" clip-rule="evenodd" d="M68.7179 30.5409V30.5228L65.8759 27.6808L63.4141 30.1427L66.6362 33.3648L63.4503 36.5689L65.8578 38.9945L68.6636 36.1887L71.5057 33.3286L68.7179 30.5409Z" fill="white"/>
<path fill-rule="evenodd" clip-rule="evenodd" d="M76.4299 30.5409V30.5228L73.5879 27.6808L71.126 30.1427L74.3481 33.3648L71.1622 36.5689L73.5697 38.9945L76.3756 36.1887L79.2176 33.3286L76.4299 30.5409Z" fill="white"/>
</g>
<defs>
<clipPath id="clip0_486_1617">
<rect width="90.51" height="90.51" fill="white" transform="translate(0.745117 0.744995)"/>
</clipPath>
</defs>
</svg>
