<svg width="92" height="92" viewBox="0 0 92 92" fill="none" xmlns="http://www.w3.org/2000/svg">
<g clip-path="url(#clip0_337_2072)">
<path d="M80.3899 65.5639H7.19803C4.64588 65.5639 2.58594 63.5093 2.58594 60.9638V7.18147C2.58594 4.63599 4.64588 2.58142 7.19803 2.58142H80.3899C82.942 2.58142 85.002 4.63599 85.002 7.18147V60.9638C85.002 63.4911 82.942 65.5639 80.3899 65.5639Z" fill="white"/>
<path d="M82.5596 67.382H5.02908C2.65923 67.382 0.745117 65.4729 0.745117 63.1093V5.01777C0.745117 2.65411 2.65923 0.744995 5.02908 0.744995H82.5596C84.9294 0.744995 86.8436 2.65411 86.8436 5.01777V63.1093C86.8436 65.4729 84.9294 67.382 82.5596 67.382ZM5.02908 4.41776C4.70094 4.41776 4.4275 4.69049 4.4275 5.01777V63.1093C4.4275 63.4365 4.70094 63.7093 5.02908 63.7093H82.5596C82.8877 63.7093 83.1612 63.4365 83.1612 63.1093V5.01777C83.1612 4.69049 82.8877 4.41776 82.5596 4.41776H5.02908Z" fill="#00553A"/>
<path d="M83.1614 41.4363V63.1093C83.1614 63.4366 82.888 63.7093 82.5598 63.7093H5.02931C4.70118 63.7093 4.42773 63.4366 4.42773 63.1093V27.8726C11.8654 44.6727 28.7278 56.4001 48.3246 56.4001C62.0515 56.4001 74.4294 50.6546 83.1614 41.4363Z" fill="#F3F3F3"/>
<path d="M83.0696 20.0179H4.44531V30.3817H83.0696V20.0179Z" fill="#E1E1E1"/>
<path d="M24.8632 45.8182H14.4724C13.5609 45.8182 12.8135 45.0728 12.8135 44.1637V42.9455C12.8135 42.0364 13.5609 41.2909 14.4724 41.2909H24.8632C25.7747 41.2909 26.5221 42.0364 26.5221 42.9455V44.1637C26.5221 45.0728 25.7747 45.8182 24.8632 45.8182Z" fill="#A8A6A7"/>
<path d="M41.2334 45.8182H30.8425C29.931 45.8182 29.1836 45.0728 29.1836 44.1637V42.9455C29.1836 42.0364 29.931 41.2909 30.8425 41.2909H41.2334C42.1448 41.2909 42.8923 42.0364 42.8923 42.9455V44.1637C42.8923 45.0728 42.1448 45.8182 41.2334 45.8182Z" fill="#A8A6A7"/>
<path d="M58.0224 45.8182H47.6316C46.7201 45.8182 45.9727 45.0728 45.9727 44.1637V42.9455C45.9727 42.0364 46.7201 41.2909 47.6316 41.2909H58.0224C58.9339 41.2909 59.6813 42.0364 59.6813 42.9455V44.1637C59.6995 45.0728 58.9521 45.8182 58.0224 45.8182Z" fill="#A8A6A7"/>
<path d="M74.8125 45.8182H64.4216C63.5101 45.8182 62.7627 45.0728 62.7627 44.1637V42.9455C62.7627 42.0364 63.5101 41.2909 64.4216 41.2909H74.8125C75.7239 41.2909 76.4714 42.0364 76.4714 42.9455V44.1637C76.4714 45.0728 75.7239 45.8182 74.8125 45.8182Z" fill="#A8A6A7"/>
<path d="M70.09 79.8186C80.762 79.8186 89.4134 71.1898 89.4134 60.5456C89.4134 49.9015 80.762 41.2727 70.09 41.2727C59.418 41.2727 50.7666 49.9015 50.7666 60.5456C50.7666 71.1898 59.418 79.8186 70.09 79.8186Z" fill="#33BA75"/>
<path d="M70.0904 81.6367C64.4392 81.6367 59.1344 79.4367 55.1238 75.4548C51.1316 71.473 48.9258 66.1638 48.9258 60.5274C48.9258 54.891 51.1316 49.6 55.1238 45.6C59.1161 41.6181 64.4392 39.4181 70.0904 39.4181C75.7415 39.4181 81.0464 41.6181 85.0569 45.6C89.0492 49.5818 91.2549 54.891 91.2549 60.5274C91.2549 66.1638 89.0492 71.4548 85.0569 75.4548C81.0646 79.4549 75.7415 81.6367 70.0904 81.6367ZM70.0904 43.0909C60.4469 43.0909 52.6082 50.9091 52.6082 60.5274C52.6082 70.1457 60.4469 77.9639 70.0904 77.9639C79.7338 77.9639 87.5726 70.1457 87.5726 60.5274C87.5726 50.9091 79.7338 43.0909 70.0904 43.0909Z" fill="#00553A"/>
<path d="M67.1372 70.1094C66.645 70.1094 66.1893 69.9094 65.8429 69.5821L59.6084 63.3638C58.8975 62.6547 58.8975 61.4911 59.6084 60.782C60.3194 60.0729 61.4861 60.0729 62.197 60.782L66.9732 65.5457L77.8563 51.7092C78.4761 50.9092 79.6428 50.7819 80.4266 51.4001C81.2287 52.0183 81.3563 53.1819 80.7365 53.9638L68.5774 69.4366C68.2493 69.8548 67.7753 70.1094 67.2466 70.1276C67.2102 70.1094 67.1737 70.1094 67.1372 70.1094Z" fill="white"/>
<path d="M89.4138 83.964L84.0725 83.3276C83.2886 83.2367 82.523 83.6731 82.2131 84.4003L80.1167 89.3095L74.8301 80.1639C78.4213 79.5457 81.8485 78.1276 84.8381 76.0366L89.4138 83.964Z" fill="#33BA75"/>
<path d="M80.1171 91.1458C79.4609 91.1458 78.8593 90.8004 78.5312 90.2367L73.2446 81.0912C72.9529 80.5821 72.9164 79.9457 73.1716 79.4003C73.4269 78.8548 73.9373 78.473 74.5206 78.3821C77.8384 77.8002 81.0286 76.4911 83.7813 74.5457C84.2006 74.2548 84.7292 74.1457 85.2396 74.2548C85.7501 74.3638 86.1694 74.6729 86.4246 75.1275L91.0184 83.0367C91.3648 83.6367 91.3466 84.3821 90.9637 84.964C90.5809 85.5458 89.9064 85.8549 89.2137 85.7821L83.9089 85.1458L81.8125 90.0367C81.539 90.6731 80.9375 91.1095 80.2447 91.1458C80.19 91.1458 80.1536 91.1458 80.1171 91.1458ZM77.6561 81.4185L79.8619 85.2367L80.5182 83.6912C81.1562 82.2185 82.6875 81.3276 84.2735 81.5276L85.9688 81.7276L84.1823 78.6366C82.1588 79.8366 79.9531 80.7821 77.6561 81.4185Z" fill="#00553A"/>
<path d="M67.0277 79.9639L61.5588 89.4367L59.4624 84.5276C59.1525 83.8003 58.3869 83.3639 57.603 83.4548L52.2617 84.0912L57.3842 75.2366C60.2098 77.4911 63.5094 79.1093 67.0277 79.9639Z" fill="#33BA75"/>
<path d="M61.5592 91.255C61.5228 91.255 61.4863 91.255 61.4498 91.255C60.7571 91.2186 60.1373 90.7822 59.8639 90.1459L57.7675 85.2731L52.4627 85.9095C51.7699 85.9822 51.0954 85.6731 50.7126 85.0913C50.3298 84.5094 50.3116 83.764 50.6579 83.164L55.7804 74.3093C56.0539 73.8548 56.5096 73.5275 57.0383 73.4184C57.5669 73.3275 58.1138 73.4548 58.5331 73.8002C61.1217 75.8912 64.2207 77.4003 67.4474 78.1821C68.0125 78.3094 68.4682 78.7094 68.7052 79.2367C68.924 79.7639 68.9058 80.364 68.6141 80.873L63.1452 90.3459C62.8171 90.9095 62.2155 91.255 61.5592 91.255ZM57.8039 81.6185C59.2441 81.6185 60.5748 82.4731 61.1399 83.8185L61.7962 85.364L64.2754 81.073C62.0332 80.3094 59.9003 79.2367 57.9498 77.9276L55.6711 81.8367L57.3846 81.6367C57.5123 81.6185 57.6581 81.6185 57.8039 81.6185Z" fill="#00553A"/>
</g>
<defs>
<clipPath id="clip0_337_2072">
<rect width="90.51" height="90.51" fill="white" transform="translate(0.745117 0.744995)"/>
</clipPath>
</defs>
</svg>
