<svg width="92" height="84" viewBox="0 0 92 84" fill="none" xmlns="http://www.w3.org/2000/svg">
<path d="M33.5215 8.56752L47.1453 4.07568L56.531 6.4646L67.7538 12.4369H72.3193V10.1657H79.1039V7.17118H89.5809V27.7798H72.7922L65.0254 33.9876L59.2594 34.139L35.3768 23.7085L34.3764 16.6596L40.1606 14.708L33.5215 8.56752Z" fill="white"/>
<path d="M76.6838 62.0997L66.4433 64.1522L57.0394 67.1299L56.4209 62.7895L32.5566 52.359L26.7906 52.5104L19.0055 58.7182H2.2168V79.3268H12.6938V76.3323H19.4785V74.0611H24.044L35.285 80.0334L44.6525 82.4223L58.2944 77.9305L79.7942 71.2853L80.3035 65.3803L76.6838 62.0997Z" fill="white"/>
<path d="M26.537 2.12427L7.76562 19.8393L41.7069 50.8279L59.2596 34.1391L51.9838 29.5463L35.377 23.7086L33.5217 18.1233L40.1608 14.7081L26.537 2.12427Z" fill="#00B677"/>
<path d="M80.4322 67.3652C80.4322 67.3988 79.7956 71.285 79.7956 71.285L70.1189 73.9431C66.0991 75.4067 62.8977 75.3394 59.4963 76.9881C57.8411 77.7956 45.5633 82.3211 45.3814 82.338L34.3769 79.1247L23.7361 74.5487L19.7891 73.2197L20.4257 60.2321C28.2471 67.567 43.0532 74.044 55.0763 74.044C65.7171 74.044 72.7745 71.285 80.3049 65.38C80.4868 65.7501 80.4322 66.9446 80.4322 67.3652Z" fill="#F3F3F3"/>
<path d="M90.0175 24.6005C90.0175 24.6341 89.5082 27.7801 89.5082 27.7801L84.7608 27.9315C80.7409 29.3951 76.1754 26.3501 72.7922 28.0156C71.137 28.8231 62.3152 33.9543 62.1515 33.9879L51.1287 30.7746L40.488 26.1987L33.5215 20.647L39.1965 15.2299C57.5314 30.5391 82.7781 21.69 90.2903 15.785C90.454 16.1383 90.0175 24.1967 90.0175 24.6005Z" fill="#F3F3F3"/>
<path d="M82.1231 64.7579C82.1231 64.7411 82.1049 64.7242 82.1049 64.7074C80.4679 61.1913 76.6663 59.8791 72.1372 61.3091L59.8048 64.4551C59.0954 62.4531 57.3129 60.7539 54.8028 59.8959C54.7846 59.8959 54.7664 59.8791 54.7482 59.8791L41.2154 55.6396C40.0876 54.2938 36.5589 50.845 29.938 50.845C25.3179 50.845 21.2253 53.7722 18.8789 56.9687H2.5085C1.52628 56.9687 0.744141 57.7089 0.744141 58.6005V79.226C0.744141 80.1344 1.54447 80.8578 2.5085 80.8578H13.0219C14.0041 80.8578 14.7863 80.1176 14.7863 79.226V77.8128H19.7156C20.6978 77.8128 21.48 77.0726 21.48 76.1809V75.7099C24.3539 75.9454 25.2997 76.4501 27.9372 77.8633C29.9744 78.94 33.0302 80.5887 38.5597 82.8766C38.5779 82.8935 38.6143 82.8935 38.6325 82.9103C39.6875 83.2972 41.761 83.9029 44.3257 83.9029C46.1083 83.9029 48.1273 83.6169 50.1827 82.7421L77.4303 73.7247C77.4848 73.7079 77.5212 73.6911 77.5758 73.6743C80.2132 72.5471 84.1057 69.4348 82.1231 64.7579ZM11.2576 77.5941H4.29106V60.2324H11.2758V77.5941H11.2576ZM17.9694 74.5491H14.8045V60.2324H17.9694V74.5491ZM76.2116 70.6629L48.9822 79.6802C48.964 79.6802 48.9276 79.697 48.9094 79.7139C48.8912 79.7307 48.8549 79.7307 48.8367 79.7475C45.0351 81.3625 41.4336 80.3868 40.0331 79.8821C34.6854 77.6614 31.8479 76.1473 29.7561 75.037C26.864 73.4892 25.4634 72.749 21.5345 72.4462V59.2735C23.2079 56.7331 26.4638 54.1255 29.9744 54.1255C35.995 54.1255 38.5415 57.7425 38.6325 57.894C38.8507 58.2136 39.1782 58.466 39.5783 58.5837L53.6386 62.9914C55.8759 63.7653 57.0764 65.5486 56.5308 67.3319C56.2761 68.1562 55.694 68.8291 54.8937 69.2497C54.0934 69.6535 53.1657 69.7544 52.2926 69.5357L36.3952 64.8588C35.4675 64.5897 34.4671 65.0607 34.1761 65.9187C33.8851 66.7767 34.3944 67.702 35.322 67.9711L51.2013 72.6312C51.2195 72.6312 51.2377 72.648 51.2559 72.648C51.8925 72.8163 52.5291 72.9004 53.1839 72.9004C54.3662 72.9004 55.5121 72.6312 56.5671 72.076C58.2042 71.2349 59.3683 69.8554 59.8776 68.2067C59.914 68.0721 59.9503 67.9375 59.9867 67.8029L73.2649 64.4046C75.1748 63.799 77.7031 63.5802 78.8308 65.9692C80.0132 68.7787 76.9937 70.3096 76.2116 70.6629Z" fill="#00553A"/>
<path d="M89.4888 5.65729H78.9572C77.975 5.65729 77.1929 6.39752 77.1929 7.28915V8.70232H72.2636C71.2813 8.70232 70.4992 9.44254 70.4992 10.3342V10.8052C67.6253 10.5697 66.6794 10.065 64.042 8.65185C62.0048 7.57515 58.949 5.92646 53.4194 3.63848C53.4013 3.62166 53.3649 3.62166 53.3467 3.60484C51.5459 2.94873 46.8349 1.65333 41.7965 3.77307L34.6845 6.12834L28.682 0.576634C27.9908 -0.0626539 26.863 -0.0626539 26.1719 0.576634L6.43645 18.83C5.79983 19.4188 5.6725 20.445 6.43645 21.1516L40.1049 52.2748C40.6505 52.7795 41.9056 52.9309 42.615 52.2748L60.6042 35.6365C61.0771 35.6702 61.5501 35.687 62.0594 35.687C66.6794 35.687 70.772 32.7597 73.1185 29.5633H89.4888C90.4711 29.5633 91.2532 28.823 91.2532 27.9314V7.30598C91.2532 6.39752 90.4711 5.65729 89.4888 5.65729ZM27.3905 4.07589L31.4286 7.81068C30.2281 8.50043 28.8457 8.87055 27.3905 8.87055C25.9354 8.87055 24.553 8.50043 23.3525 7.81068L27.3905 4.07589ZM14.2397 23.7087L10.2016 19.974L14.2397 16.2392C14.9854 17.3495 15.3856 18.6281 15.3856 19.974C15.3674 21.3198 14.9672 22.5984 14.2397 23.7087ZM41.3599 48.8092L37.3219 45.0744C39.7775 43.6613 42.9242 43.6613 45.3798 45.0744L41.3599 48.8092ZM47.9445 42.7191C44.0338 40.0947 38.6861 40.0947 34.7754 42.7191L16.768 26.064C18.1504 24.3144 18.8961 22.1946 18.8961 19.974C18.8961 17.7533 18.1504 15.6504 16.768 13.8839L20.806 10.1491C22.6977 11.4277 24.9895 12.1175 27.3905 12.1175C29.7915 12.1175 32.0652 11.4277 33.9751 10.1491L37.7948 13.682C36.9763 13.7998 36.1578 14.0521 35.412 14.4391C34.1388 15.0952 33.1565 16.0709 32.5381 17.2486C32.3562 17.2822 30.1189 23.2882 37.1764 26.6192C37.1946 26.6192 37.2128 26.636 37.231 26.636L50.109 30.6736C49.436 33.5504 50.1272 36.5786 51.9825 38.9675L47.9445 42.7191ZM54.529 36.6291C53.8378 35.6029 53.4558 34.4252 53.4013 33.2308C54.2561 33.8028 55.2929 34.3579 56.5298 34.7953L54.529 36.6291ZM70.4992 27.2753C68.8258 29.8156 65.5699 32.4232 62.0594 32.4232C61.4045 32.4232 60.7861 32.3728 60.2222 32.3055C56.4025 31.784 54.3471 29.782 53.6741 28.9913C53.6377 28.9408 53.4922 28.7558 53.4558 28.7221C53.2557 28.3856 52.9101 28.0996 52.4736 27.9651L38.3951 23.5573C36.1578 22.7835 34.9573 21.0002 35.503 19.2337C35.7576 18.4094 36.3397 17.7365 37.14 17.3327C37.9403 16.9289 38.8498 16.828 39.7411 17.0467L55.584 21.6899C56.5116 21.9591 57.512 21.4881 57.8031 20.6301C58.0941 19.7721 57.5848 18.8468 56.6571 18.5776L44.0519 14.8765L43.9428 14.7755L37.4128 8.73596L43.0152 6.88539C43.0333 6.88539 43.0515 6.86857 43.0697 6.86857H43.0879C43.1061 6.85175 43.1425 6.85175 43.1607 6.83492C46.9622 5.21988 50.5637 6.19563 51.9643 6.70034C57.312 8.92102 60.1495 10.4351 62.2413 11.5455C65.1334 13.0932 66.5339 13.8334 70.4628 14.1363V27.2753H70.4992ZM77.1929 26.2995H74.0279V11.9829H77.1929V26.2995ZM87.7245 26.2995H80.7398V8.93784H87.7245V26.2995Z" fill="#00553A"/>
<path d="M35.8685 26.1648L35.7957 25.862C35.5593 25.7274 35.3956 25.5928 35.1773 25.4246C34.1951 24.7012 33.7585 24.1124 32.9036 22.8843C32.5398 23.3385 32.4671 23.7086 32.5035 24.2638C32.5216 24.8694 32.7581 25.5255 33.231 26.2321L33.7585 26.9724L34.0314 27.5948C34.0677 27.6789 34.0677 27.7631 34.0859 27.9313L34.1041 28.0154C34.1041 28.049 34.1041 28.0827 34.1223 28.0827C34.1223 28.2509 34.0495 28.3687 33.9222 28.5033C33.8131 28.6042 33.704 28.6379 33.5221 28.6379C33.3584 28.6379 33.1947 28.6042 33.0855 28.5537L32.3943 28.0995L31.9214 27.6116C31.8123 27.4434 31.7213 27.2752 31.6486 27.0901C31.5576 26.8378 31.503 26.5686 31.503 26.2658C31.503 26.0134 31.3939 25.7779 31.1756 25.5928C30.9574 25.391 30.6663 25.29 30.3571 25.29C30.0479 25.29 29.7569 25.4078 29.5568 25.5928C29.3021 25.8284 29.1748 26.148 29.2112 26.5013C29.2294 27.0396 29.3385 27.5275 29.5386 27.9649C29.6659 28.2678 29.8478 28.5537 30.0661 28.8566L29.6659 29.2267C29.4295 29.4454 29.3203 29.6977 29.3021 29.9837C29.3021 30.2697 29.4113 30.5221 29.6477 30.7408C29.8842 30.9427 30.1752 31.0604 30.4663 31.0604C30.7755 31.0604 31.0665 30.9427 31.2848 30.7408L31.7395 30.3202C32.3216 30.623 32.9218 30.7744 33.5402 30.7744C34.3406 30.7913 35.0318 30.5221 35.5956 30.0006C36.2323 29.4117 36.5597 28.7725 36.5415 28.0995C36.5233 27.5107 36.2868 26.8714 35.8685 26.1648Z" fill="white"/>
</svg>
