<svg width="92" height="92" viewBox="0 0 92 92" fill="none" xmlns="http://www.w3.org/2000/svg">
<g clip-path="url(#clip0_337_2290)">
<path d="M60.0294 19.2271H56.934L59.07 12.7647L40.2439 9.36154L37.764 15.1361L34.7952 16.0412L32.6592 6.64624L10.6291 9.36154L11.2626 18.4668L9.59726 19.2271L3.84082 25.418V74.1124H65.7497V25.418L60.0294 19.2271Z" fill="white"/>
<path d="M31.9895 4.81796C32.8764 4.51022 33.8359 4.3473 34.7953 4.3473C37.945 4.3473 40.7508 6.04889 42.1266 8.54697L46.29 9.47017C45.0229 4.52832 40.2621 0.926025 34.7953 0.926025C31.1387 0.926025 27.6631 2.55521 25.4365 5.27051L31.9895 4.81796Z" fill="#00583C"/>
<path d="M65.677 45.3665V72.8815L4.45605 73.3884L6.01283 46.6155C8.80053 63.1064 21.4357 67.107 38.7593 67.107C53.3858 67.0708 60.4818 58.1103 65.677 45.3665Z" fill="#F4F4F4"/>
<path d="M45.7276 24.8569L57.4215 25.0198L60.2454 12.9276C60.3359 12.5656 60.2635 12.2036 60.0825 11.8958C59.8834 11.5881 59.5757 11.3709 59.2317 11.2804L40.5504 6.89968C40.1884 6.80917 39.8264 6.88158 39.5186 7.0626C39.2109 7.26172 38.9937 7.56946 38.9032 7.9134L37.4912 13.9595L45.7276 24.8569Z" fill="#A7A5A6"/>
<path d="M58.852 26.8481L44.8049 26.6489L35.5186 14.3758L37.1296 7.51512C37.3288 6.68243 37.8175 5.99455 38.5416 5.542C39.2657 5.08945 40.1165 4.94463 40.9492 5.14376L59.6485 9.50634C60.4812 9.70546 61.1872 10.2123 61.6216 10.9364C62.0561 11.6424 62.2009 12.5294 62.0199 13.344L58.852 26.8481ZM46.6332 23.0647L55.9919 23.2096L58.3814 12.9638L40.5509 8.80036L39.4286 13.5793L46.6332 23.0647Z" fill="#00583C"/>
<path d="M33.9442 16.5299L32.7675 6.51952C32.7313 6.17558 32.5503 5.86785 32.2788 5.65063C32.0073 5.4334 31.6633 5.34289 31.3194 5.3791L9.61508 7.94958C8.90911 8.04009 8.40225 8.67366 8.47466 9.39774L10.7193 25.1284C10.7555 25.3637 18.6842 25.1284 18.6842 25.1284L33.9442 16.5299Z" fill="#A7A5A6"/>
<path d="M12.8006 26.9386C12.4929 26.9386 12.2033 26.9386 11.9498 26.9386C11.5154 26.9386 11.1896 26.9205 10.9361 26.9024C9.39746 26.7937 9.07162 25.8162 9.01732 25.3637L6.77267 9.59685C6.57355 7.94957 7.76828 6.4471 9.41556 6.24798L31.138 3.67749C31.9344 3.58698 32.7309 3.80421 33.3464 4.31106C33.9619 4.79982 34.3782 5.542 34.4687 6.32039L35.7902 17.4531L19.1544 26.8119L18.7381 26.83C18.72 26.83 16.7107 26.8843 14.7375 26.9205C13.9954 26.9386 13.3437 26.9386 12.8006 26.9386ZM12.4024 24.8749V24.893C12.4024 24.8749 12.4024 24.8749 12.4024 24.8749ZM12.2214 23.4992C13.6152 23.5173 15.9866 23.463 18.2131 23.4087L32.1155 15.5886L31.1199 7.13498L10.2301 9.59685L12.2214 23.4992Z" fill="#00583C"/>
<path d="M46.2535 24.7121L43.5382 13.3984C43.4477 13.0363 43.2305 12.7467 42.9228 12.5476C42.615 12.3666 42.2349 12.2942 41.8909 12.3847L19.8065 17.6886C19.0643 17.8696 18.6118 18.6118 18.7928 19.3358L20.1504 25.0018L46.2535 24.7121Z" fill="#E1E1E1"/>
<path d="M18.7018 26.83L17.0002 19.7702C16.5839 18.0686 17.6519 16.349 19.3535 15.9326L41.4379 10.6287C42.2706 10.4296 43.1214 10.5744 43.8455 11.0089C44.5696 11.4614 45.0764 12.1493 45.2756 12.982L48.5339 26.5042L18.7018 26.83ZM20.6387 19.3539L21.5619 23.1734L43.9722 22.92L41.8905 14.231L20.6387 19.3539Z" fill="#00583C"/>
<path d="M66.0027 25.1646C66.0027 25.0379 65.9665 24.9112 65.9303 24.8026V24.7845C65.9122 24.7302 65.8941 24.6577 65.8579 24.6034C65.8579 24.6034 65.8579 24.5853 65.8398 24.5853C65.8036 24.5129 65.7674 24.4586 65.7312 24.3862L61.7126 18.1048C61.3867 17.598 60.8075 17.2902 60.192 17.2902H58.5266L57.6577 20.7115H59.1783L61.0247 23.5535H56.9336H53.2589H46.2172H42.5425H23.4449H19.7702H14.231H10.6287H8.56509L10.2848 20.8382L9.83223 17.254H9.37968C8.76421 17.254 8.16684 17.5618 7.85911 18.0686L3.84046 24.35V24.3681C3.80426 24.4224 3.76806 24.4767 3.74995 24.531C3.73185 24.5491 3.73185 24.5672 3.73185 24.5853C3.71375 24.6396 3.69565 24.6758 3.67755 24.7302C3.67755 24.7483 3.65944 24.7664 3.65944 24.7845C3.64134 24.8388 3.62324 24.9112 3.62324 24.9836C3.62324 25.0017 3.62324 25.0017 3.62324 25.0198C3.62324 25.056 3.60514 25.1103 3.60514 25.1465L0.926042 74.1848C0.90794 74.6555 1.08896 75.1261 1.4329 75.452C1.77684 75.7778 2.22939 75.9769 2.71814 75.9769H66.8897C67.3785 75.9769 67.831 75.7959 68.175 75.452C68.5189 75.108 68.6999 74.6555 68.6818 74.1848L66.0027 25.1646ZM4.60075 72.5737L7.08072 26.9567H62.5091L65.0071 72.5737H4.60075Z" fill="#00583C"/>
<path d="M17.3268 39.9902L16.2044 54.8338C16.0777 56.3001 17.0552 57.5853 18.3043 57.5853L51.8292 57.6758C53.0782 57.6758 54.0557 56.3725 53.929 54.8881L52.6619 39.9539C52.5532 38.6506 51.6481 37.6731 50.562 37.6731H19.4266C18.3405 37.6731 17.4173 38.6868 17.3268 39.9902Z" fill="#E1E1E1"/>
<path d="M44.8237 29.0204C42.6153 29.0204 40.8051 30.7039 40.8051 32.7856C40.8051 34.27 41.7102 35.5371 43.0316 36.1526V40.9496C43.0316 45.2036 39.3388 48.6611 34.7952 48.6611C30.2516 48.6611 26.5588 45.2036 26.5588 40.9496V36.1526C27.8802 35.5371 28.7853 34.2519 28.7853 32.7856C28.7853 30.7039 26.9932 29.0204 24.7667 29.0204C22.5401 29.0204 20.748 30.7039 20.748 32.7856C20.748 34.27 21.6531 35.5371 22.9746 36.1526V40.9496C22.9746 47.0862 28.2785 52.0823 34.7952 52.0823C41.3119 52.0823 46.6158 47.0862 46.6158 40.9496V36.1526C47.9373 35.5371 48.8424 34.2519 48.8424 32.7856C48.8424 30.722 47.0322 29.0204 44.8237 29.0204ZM44.8237 31.5366C45.5659 31.5366 46.1633 32.0977 46.1633 32.7856C46.1633 32.8218 46.1633 32.858 46.1633 32.9123C45.8374 32.5684 45.3668 32.3331 44.8418 32.3331H44.7332C44.2625 32.3331 43.8281 32.5141 43.5023 32.8037V32.7856C43.4842 32.1158 44.0815 31.5366 44.8237 31.5366ZM24.7667 31.5366C25.5089 31.5366 26.1062 32.0977 26.1062 32.7856C26.1062 32.8218 26.1062 32.858 26.1062 32.9123C25.7804 32.5684 25.3098 32.3331 24.7848 32.3331C24.2598 32.3331 23.7892 32.5503 23.4633 32.9123C23.4633 32.8761 23.4633 32.8399 23.4633 32.7856C23.4271 32.1158 24.0426 31.5366 24.7667 31.5366Z" fill="#00583C"/>
<path d="M69.6408 88.775C80.2481 88.775 88.847 80.1761 88.847 69.5688C88.847 58.9615 80.2481 50.3625 69.6408 50.3625C59.0335 50.3625 50.4346 58.9615 50.4346 69.5688C50.4346 80.1761 59.0335 88.775 69.6408 88.775Z" fill="#33BA75"/>
<path d="M78.0041 64.2831L76.5197 70.4921C76.5016 70.5464 76.4654 70.6007 76.4111 70.6007L71.7227 70.8903C67.0162 71.1799 64.1199 71.361 63.8483 71.3791C63.794 71.3791 63.7397 71.3247 63.7397 71.2342L63.251 64.265C63.251 64.1926 63.2691 64.1564 63.2872 64.1383C63.3053 64.1202 63.3415 64.1021 63.3596 64.1021H77.8774C77.9136 64.1021 77.9498 64.1202 77.9679 64.1564C77.986 64.1383 78.0222 64.1926 78.0041 64.2831Z" fill="white"/>
<path d="M78.9274 63.3779C78.674 63.0521 78.2939 62.8711 77.8775 62.8711H63.3597C62.9977 62.8711 62.6356 63.0159 62.3822 63.2874C62.1288 63.559 61.9839 63.9572 62.0202 64.3374L62.5089 71.3066C62.5632 72.0126 63.1425 72.5738 63.8485 72.5738C63.8847 72.5738 63.9028 72.5738 71.7771 72.085L76.4656 71.7954C77.0629 71.7592 77.5517 71.3428 77.6965 70.7455L79.1809 64.5365C79.2895 64.1382 79.199 63.7038 78.9274 63.3779ZM76.3931 70.5825L71.7047 70.8722C66.9982 71.1618 64.1019 71.3428 63.8304 71.3609C63.776 71.3609 63.7217 71.3066 63.7217 71.2161L63.233 64.2468C63.233 64.1744 63.2511 64.1382 63.2692 64.1201C63.2873 64.102 63.3235 64.0839 63.3416 64.0839H77.8594C77.8956 64.0839 77.9318 64.102 77.9499 64.1382C77.968 64.1563 78.0042 64.2106 77.9861 64.283L76.5018 70.492C76.5018 70.5463 76.4474 70.5825 76.3931 70.5825Z" fill="white"/>
<path d="M65.7855 72.9177C64.1744 72.9177 62.8711 74.2211 62.8711 75.8321C62.8711 77.4432 64.1744 78.7647 65.7855 78.7647C67.3966 78.7647 68.6999 77.4432 68.6999 75.8321C68.718 74.2392 67.3966 72.9177 65.7855 72.9177ZM65.7855 77.5518C64.8442 77.5518 64.0839 76.7916 64.0839 75.8502C64.0839 74.9089 64.8442 74.1487 65.7855 74.1487C66.7268 74.1487 67.4871 74.9089 67.4871 75.8502C67.4871 76.7916 66.7268 77.5518 65.7855 77.5518Z" fill="white"/>
<path d="M74.3119 72.9177C72.7008 72.9177 71.3975 74.2211 71.3975 75.8321C71.3975 77.4432 72.7008 78.7647 74.3119 78.7647C75.923 78.7647 77.2444 77.4432 77.2444 75.8321C77.2444 74.2392 75.923 72.9177 74.3119 72.9177ZM74.3119 77.5518C73.3706 77.5518 72.6103 76.7916 72.6103 75.8502C72.6103 74.9089 73.3706 74.1487 74.3119 74.1487C75.2532 74.1487 76.0135 74.9089 76.0135 75.8502C76.0135 76.7916 75.2532 77.5518 74.3119 77.5518Z" fill="white"/>
<path d="M76.303 74.2935H65.4599C63.9574 74.2935 62.7084 73.1712 62.5274 71.6868C62.5274 71.6687 62.5636 72.1393 61.6404 61.8936H60.7896C60.3732 61.8936 60.0293 61.5497 60.0293 61.1333C60.0293 60.717 60.3732 60.373 60.7896 60.373H62.3464C62.7446 60.373 63.0704 60.6808 63.1066 61.0609L64.0479 71.5239C64.1385 72.2299 64.7358 72.7729 65.4599 72.7729H76.303C76.7193 72.7729 77.0633 73.1169 77.0633 73.5332C77.0633 73.9495 76.7193 74.2935 76.303 74.2935Z" fill="white"/>
<path d="M69.8581 91.2551C64.1922 91.2551 58.8521 89.0466 54.8516 85.0461C50.851 81.0455 48.6426 75.7054 48.6426 70.0395C48.6426 64.3736 50.851 59.0335 54.8516 55.033C58.8521 51.0324 64.1922 48.824 69.8581 48.824C75.524 48.824 80.8641 51.0324 84.8647 55.033C88.8652 59.0335 91.0737 64.3736 91.0737 70.0395C91.0737 75.7054 88.8652 81.0455 84.8647 85.0461C80.8641 89.0466 75.524 91.2551 69.8581 91.2551ZM69.8581 52.4806C65.1697 52.4806 60.7709 54.3089 57.4582 57.6215C54.1456 60.9342 52.3173 65.333 52.3173 70.0214C52.3173 74.7098 54.1456 79.1086 57.4582 82.4213C60.7709 85.734 65.1697 87.5623 69.8581 87.5623C74.5465 87.5623 78.9453 85.734 82.258 82.4213C85.5707 79.1086 87.399 74.7098 87.399 70.0214C87.399 65.333 85.5707 60.9342 82.258 57.6215C78.9634 54.3089 74.5465 52.4806 69.8581 52.4806Z" fill="#00583C"/>
</g>
<defs>
<clipPath id="clip0_337_2290">
<rect width="90.51" height="90.51" fill="white" transform="translate(0.745117 0.744995)"/>
</clipPath>
</defs>
</svg>
