<svg width="92" height="92" viewBox="0 0 92 92" fill="none" xmlns="http://www.w3.org/2000/svg">
<g clip-path="url(#clip0_337_2187)">
<path d="M16.3314 88.069L3.08071 65.7673C2.32043 64.5002 2.73678 62.8529 4.02202 62.0926L14.2134 56.0285C15.4806 55.2682 17.1279 55.6845 17.8882 56.9698L31.1569 79.2714C31.9172 80.5386 31.5009 82.1859 30.2156 82.9461L20.0242 89.0103C18.7389 89.7706 17.0917 89.3361 16.3314 88.069Z" fill="white"/>
<path d="M18.6664 91.1464C17.1458 91.1464 15.6433 90.368 14.8107 88.956L1.55999 66.6906C0.292849 64.5726 0.998827 61.803 3.11676 60.554L13.272 54.5079C14.3038 53.8924 15.4985 53.7295 16.6571 54.0191C17.8156 54.3088 18.7931 55.051 19.4086 56.0647L32.6592 78.3301C33.2747 79.362 33.4376 80.5567 33.148 81.7152C32.8583 82.8737 32.1162 83.8512 31.1025 84.4667L20.9472 90.5309C20.2232 90.9472 19.4448 91.1464 18.6664 91.1464ZM17.8518 87.1458C18.1052 87.5803 18.6845 87.7251 19.1189 87.4717L29.2742 81.4256C29.4914 81.2989 29.6362 81.0997 29.6905 80.8644C29.7448 80.6291 29.7086 80.3757 29.5819 80.1584L16.3312 57.893C16.2045 57.6758 16.0054 57.5309 15.7701 57.4766C15.5347 57.4223 15.2813 57.4585 15.0641 57.5852L4.90886 63.6313C4.47441 63.8847 4.32959 64.464 4.58302 64.8985L17.8518 87.1458Z" fill="#00583C"/>
<path d="M89.3725 58.7257C89.3725 58.7801 89.3725 58.8525 89.3725 58.9068C89.3001 60.5903 88.1778 62.0565 86.5848 62.6177L74.8547 67.65C71.1619 69.0982 68.2475 70.4921 64.5728 72.4471C62.6539 73.4608 61.3506 73.7685 58.3819 74.2573C57.9293 74.3297 55.4494 74.5469 54.9968 74.6012L30.1609 77.4975L28.2239 74.2392L18.6299 58.237L30.7944 51.9737C33.6907 50.4712 37.0577 50.0911 40.2256 50.8876L57.5311 55.2321C59.5223 55.7389 60.9162 57.5129 60.9162 59.5584C60.9162 60.7894 60.4093 61.9117 59.6128 62.7082C58.7982 63.5228 57.694 64.0115 56.4631 64.0115C58.7982 64.0115 60.8437 62.4005 61.3687 60.1196C61.604 59.0697 61.6945 58.1465 62.0566 57.7663L71.7774 56.5173C77.6062 55.3045 78.276 55.1959 83.4531 54.0192C84.8651 53.6934 86.3857 53.983 87.5804 54.9605C88.7751 55.9199 89.3725 57.3138 89.3725 58.7257Z" fill="white"/>
<path d="M30.1613 79.2715C29.5458 79.2715 28.9666 78.9457 28.6407 78.4026L26.7038 75.1442L17.1279 59.1602C16.8744 58.7438 16.802 58.237 16.9469 57.7663C17.0736 57.2957 17.3994 56.8974 17.8339 56.6802L29.9984 50.4169C33.293 48.7153 37.0763 48.2809 40.6605 49.186L57.966 53.5305C59.5047 53.9106 60.7718 54.8338 61.6226 56.0828C61.695 56.0647 61.7493 56.0466 61.8217 56.0466L71.4882 54.7976C72.2847 54.6347 72.9907 54.4899 73.6061 54.3632C77.5705 53.5486 78.6385 53.3313 83.0554 52.3357C85.0647 51.8832 87.1102 52.3538 88.6851 53.621C90.2419 54.87 91.147 56.7526 91.147 58.7619C91.147 58.8525 91.147 58.9249 91.147 59.0154C91.0564 61.3686 89.4816 63.4866 87.2369 64.3012L75.5611 69.2973C75.543 69.2973 75.5249 69.3154 75.5068 69.3154C72.158 70.6369 69.334 71.9583 65.4059 74.0219C63.2337 75.1805 61.6769 75.5063 58.672 76.0131C58.3461 76.0674 57.5134 76.1399 56.2825 76.2666C55.8299 76.3028 55.3412 76.3571 55.1964 76.3752L30.3423 79.3077C30.3061 79.2715 30.2337 79.2715 30.1613 79.2715ZM21.1284 58.9611L29.745 73.334L31.1026 75.5968L54.8162 72.8091C54.9973 72.791 55.3774 72.7548 55.9748 72.7005C56.6445 72.6462 57.8755 72.5195 58.1108 72.4833C61.0252 71.9945 62.1114 71.7411 63.7586 70.8541C67.1256 69.0801 70.1848 67.5776 74.1854 65.9846L85.8974 60.9704C85.9336 60.9523 85.9698 60.9342 86.006 60.9342C86.9292 60.6083 87.5628 59.7757 87.599 58.8343C87.599 58.7981 87.599 58.7619 87.599 58.7257C87.599 57.8025 87.1826 56.9336 86.4585 56.3544C85.7345 55.7751 84.7751 55.5579 83.8337 55.7751C79.3807 56.7888 78.204 57.0241 74.3121 57.8206C73.6604 57.9473 72.9544 58.1103 72.1218 58.2732C72.0855 58.2913 72.0312 58.2913 71.995 58.2913L63.3061 59.4136C63.288 59.5222 63.2699 59.6127 63.2518 59.7032C63.1975 59.9567 63.1432 60.2463 63.0708 60.5359C62.3467 63.6314 59.6314 65.8036 56.4454 65.8036C55.4679 65.8036 54.6533 65.0071 54.6533 64.0296C54.6533 63.0521 55.4498 62.2556 56.4273 62.2556C57.1514 62.2556 57.8212 61.9841 58.328 61.4591C58.8349 60.9523 59.1064 60.2825 59.1064 59.5584C59.1064 58.3275 58.2737 57.2414 57.079 56.9517L39.7735 52.6073C37.022 51.9194 34.1257 52.2452 31.5914 53.5486L21.1284 58.9611Z" fill="#00583C"/>
<path d="M56.4452 65.8036C56.3366 65.8036 56.228 65.7855 56.1193 65.7674L40.8775 62.9254C39.918 62.7443 39.2845 61.8211 39.4474 60.8436C39.6284 59.8842 40.5516 59.2507 41.5291 59.4136L56.771 62.2556C57.7304 62.4366 58.364 63.3598 58.2011 64.3373C58.0382 65.2062 57.296 65.8036 56.4452 65.8036Z" fill="#005738"/>
<path d="M87.5989 58.7076C87.5989 58.7438 87.5989 58.78 87.5989 58.8162C87.5627 59.7394 86.9292 60.5902 86.0241 60.916L85.9697 60.9341L74.1853 65.9122C70.1848 67.4871 67.3609 68.9352 63.9939 70.7092C62.3466 71.5781 61.0252 71.904 58.1108 72.3927C57.8754 72.4289 56.6445 72.5375 55.9747 72.6099C55.3774 72.6642 54.9972 72.7005 54.8162 72.7186L31.1207 75.5787L29.7449 73.2435L21.1465 58.9248L29.1295 54.8157C36.8952 62.69 47.6478 67.5414 59.5951 67.5414C70.1667 67.5414 79.8513 63.7038 87.3274 57.35C87.4903 57.7844 87.5989 58.2551 87.5989 58.7076Z" fill="#F4F4F4"/>
<path d="M53.0783 34.3242L46.7426 43.3571C46.5435 43.6467 46.7607 44.0631 47.1228 44.045L54.4179 43.7916C54.5808 43.7916 54.7437 43.8821 54.8161 44.0269L58.346 51.2134C58.5089 51.5573 58.9977 51.5392 59.1425 51.1953L64.2654 38.7954L53.0783 34.3242Z" fill="#33BA75"/>
<path d="M58.7266 53.1502C57.912 53.1502 57.1698 52.6796 56.8078 51.9555L53.6399 45.5112L47.1775 45.7284C46.3629 45.7646 45.6207 45.3302 45.2225 44.6061C44.8423 43.9001 44.8785 43.0312 45.3492 42.3795L53.0607 31.0658L66.8182 36.5688L60.7178 51.8288C60.392 52.6072 59.6498 53.114 58.8171 53.1502C58.7628 53.1502 58.7447 53.1502 58.7266 53.1502ZM54.4183 42.0899C55.2329 42.0899 55.9751 42.5606 56.3371 43.2846L58.618 47.9188L62.4013 38.4695L54.3278 35.2474L49.5489 42.2528L54.3459 42.0899C54.364 42.0899 54.3821 42.0899 54.4183 42.0899Z" fill="#00583C"/>
<path d="M78.5659 34.3242L84.9016 43.3571C85.1008 43.6467 84.8835 44.0631 84.5215 44.045L77.2264 43.7916C77.0635 43.7916 76.9006 43.8821 76.8281 44.0269L73.2983 51.2134C73.1353 51.5573 72.6466 51.5392 72.5018 51.1953L67.3789 38.7954L78.5659 34.3242Z" fill="#33BA75"/>
<path d="M72.9182 53.1502C72.9001 53.1502 72.8639 53.1502 72.8458 53.1502C72.0131 53.1321 71.2528 52.6072 70.9451 51.8288V51.8107L64.8447 36.5688L78.6022 31.0658L86.3137 42.3795C86.7663 43.0493 86.8206 43.9001 86.4404 44.6061C86.0603 45.3302 85.3 45.7465 84.4854 45.7284L78.023 45.5112L74.8551 51.9555C74.475 52.6977 73.7328 53.1502 72.9182 53.1502ZM69.2616 38.4695L73.0449 47.9188L75.3258 43.2846C75.6878 42.5244 76.4843 42.0537 77.317 42.0899L82.114 42.2528L77.3351 35.2474L69.2616 38.4695Z" fill="#00583C"/>
<path d="M65.6413 38.5781C75.5688 38.5781 83.6166 30.5303 83.6166 20.6028C83.6166 10.6754 75.5688 2.62756 65.6413 2.62756C55.7138 2.62756 47.666 10.6754 47.666 20.6028C47.666 30.5303 55.7138 38.5781 65.6413 38.5781Z" fill="#33BA75"/>
<path d="M65.6417 40.2979C60.3921 40.2979 55.4322 38.2523 51.7213 34.5414C48.0104 30.8305 45.9648 25.8887 45.9648 20.621C45.9648 15.3714 48.0104 10.4115 51.7213 6.70056C55.4322 2.97155 60.374 0.926025 65.6417 0.926025C70.9094 0.926025 75.8512 2.97155 79.5622 6.68246C83.2731 10.3934 85.3186 15.3352 85.3186 20.6029C85.3186 25.8525 83.2731 30.8124 79.5622 34.5233C75.8331 38.2524 70.8913 40.2979 65.6417 40.2979ZM65.6417 4.3292C56.6631 4.3292 49.368 11.6243 49.368 20.6029C49.368 29.5815 56.6631 36.8766 65.6417 36.8766C74.6203 36.8766 81.9154 29.5815 81.9154 20.6029C81.9154 11.6243 74.6022 4.3292 65.6417 4.3292Z" fill="#00583C"/>
<path d="M62.8726 29.5272C62.42 29.5272 61.9856 29.3462 61.6598 29.0204L55.849 23.2096C55.1792 22.5398 55.1792 21.4718 55.849 20.802C56.5188 20.1323 57.5868 20.1323 58.2566 20.802L62.7097 25.2551L72.8468 12.3484C73.426 11.6062 74.4941 11.4795 75.2363 12.0588C75.9784 12.638 76.1051 13.7061 75.5259 14.4482L64.2121 28.8755C63.9044 29.2557 63.4518 29.491 62.9812 29.5272C62.945 29.5272 62.9088 29.5272 62.8726 29.5272Z" fill="white"/>
</g>
<defs>
<clipPath id="clip0_337_2187">
<rect width="90.51" height="90.51" fill="white" transform="translate(0.745117 0.744995)"/>
</clipPath>
</defs>
</svg>
